<svg width="20" height="21" viewBox="0 0 20 21" fill="none" xmlns="http://www.w3.org/2000/svg">
<path d="M17 10.9883C17 11.439 16.7738 11.8897 16.3215 12.1151C14.8137 13.0165 11.9489 14.594 9.83796 15.6456C8.02861 16.547 5.54074 17.5987 3.80677 18.3498C3.65599 18.4249 3.42982 18.5001 3.27905 18.5001C2.97749 18.5001 2.60054 18.3498 2.37437 18.1245C1.99742 17.7489 1.92203 17.2231 2.07281 16.6972L3.65599 12.04C3.73138 11.7395 4.03294 11.5893 4.3345 11.5893H8.104C8.40556 11.5893 8.70712 11.3639 8.70712 10.9883C8.70712 10.6127 8.48095 10.3874 8.104 10.3874H4.3345C4.03294 10.3874 3.73138 10.162 3.65599 9.86156L2.07281 5.20429C1.92203 4.75358 1.99742 4.22776 2.44976 3.85217C2.82671 3.47659 3.35444 3.40147 3.80677 3.62682C5.23918 4.22776 7.95322 5.42964 9.83796 6.33105C11.9489 7.38269 14.8137 9.03527 16.3215 9.86156C16.7738 10.0869 17 10.5376 17 10.9883Z" fill="white"/>
</svg>
