<svg width="32" height="35" viewBox="0 0 32 35" fill="none" xmlns="http://www.w3.org/2000/svg">
<g clip-path="url(#clip0)">
<path d="M28.8922 3.05737L28.8922 3.05719L28.8922 3.05716V3.05714L28.9596 1.88147L27.7885 2.00557L27.7884 2.00557L27.788 2.00562L27.786 2.00583L27.7777 2.0067L27.7443 2.01019L27.6134 2.02363C27.4991 2.03525 27.3327 2.0519 27.1253 2.0719C26.7103 2.11192 26.132 2.16528 25.4794 2.21862C24.1653 2.32602 22.5817 2.43059 21.4205 2.43059H9.35346L3.0203 2.30199L2 2.28127V3.30178V4.94135V5.75333L2.79468 5.92005L4.89983 6.36168L4.89981 6.36174L4.91085 6.36393C5.27845 6.43674 5.53421 6.50089 5.7197 6.56718C5.9025 6.63251 5.96597 6.68251 5.98374 6.69896C5.98404 6.69924 5.98439 6.69955 5.98478 6.69989C5.99073 6.70513 6.00634 6.71888 6.02603 6.7849C6.05281 6.87466 6.07837 7.03583 6.07837 7.32434V7.3441L6.07915 7.36383L6.07915 7.36385L6.07916 7.3639L6.07917 7.36433L6.07925 7.36629L6.07957 7.37462L6.08087 7.4088L6.08586 7.54641C6.09018 7.66859 6.09638 7.8512 6.10382 8.09158C6.11871 8.57233 6.1386 9.2841 6.1585 10.2055C6.19831 12.0484 6.23816 14.7296 6.23816 18.0781C6.23816 21.435 6.19831 24.1199 6.1585 25.9643C6.1386 26.8866 6.11871 27.5986 6.10382 28.0794C6.09638 28.3199 6.09018 28.5025 6.08586 28.6246L6.08087 28.7622L6.07957 28.7964L6.07925 28.8047L6.07917 28.8066L6.07916 28.8071L6.07915 28.8071L6.07915 28.8071L6.07837 28.8269V28.8466C6.07837 29.3251 5.98781 29.4137 5.96266 29.4383L5.96134 29.4396C5.88361 29.5162 5.64952 29.6607 4.91085 29.8071L4.90123 29.809L4.89166 29.8111L2.78651 30.2711L2 30.443V31.248V32.8729V33.8952L3.02212 33.8726L9.49932 33.7294H20.3614C21.5544 33.7294 23.5802 33.765 25.3163 33.8009C26.1825 33.8188 26.9736 33.8367 27.5482 33.8502C27.8355 33.8569 28.0686 33.8625 28.2298 33.8664L28.4155 33.871L28.4638 33.8722L28.4761 33.8725L28.4791 33.8725L28.4799 33.8726L28.4801 33.8726L28.5052 32.8729L28.4801 33.8726L29.4098 33.8958L29.5004 32.9703C29.5718 32.2403 29.7956 30.2326 30.0223 28.3083C30.2532 26.3472 30.475 24.5836 30.5421 24.2696L30.8007 23.0604H29.5642H28.0407H27.3979L27.131 23.6451L25.4903 27.2389L25.4859 27.2486L25.4817 27.2584C24.9541 28.4824 24.3231 29.0218 23.7022 29.2972C23.0278 29.5964 22.2417 29.6445 21.2607 29.6445H14.9174C13.9479 29.6445 13.4836 29.4617 13.2618 29.2752C13.0813 29.1235 12.8981 28.8289 12.8981 28.0996V19.8312C13.306 19.8341 13.8062 19.8388 14.3367 19.8467C15.6657 19.8666 17.1219 19.9061 17.8254 19.9791C18.3889 20.0467 18.6061 20.1352 18.7372 20.2376C18.8576 20.3316 19.0376 20.5437 19.2326 21.1774L19.6734 23.2357L19.8428 24.0263H20.6513H22.4666H23.4967L23.4661 22.9966L23.3076 17.6635L23.6098 12.4593L23.6712 11.4013H22.6115H20.8111H20.0331L19.8418 12.1553L19.2324 14.5567L19.2244 14.5881L19.2185 14.62C19.0614 15.465 18.9467 15.574 18.9181 15.599C18.9029 15.6122 18.8464 15.6565 18.6556 15.7144C18.4635 15.7727 18.2038 15.8257 17.8137 15.8939C16.7953 15.9683 15.3387 16.0067 14.1121 16.0262C13.6614 16.0333 13.2452 16.0379 12.8981 16.0408V6.38483H22.16C22.666 6.38483 23.0194 6.56034 23.3479 6.99379C23.7233 7.48921 24.0597 8.32409 24.3478 9.627L24.3548 9.65867L24.3639 9.68982L24.9733 11.7894L25.1826 12.5107H25.9336H27.5891H28.5628L28.5888 11.5374C28.6686 8.55142 28.7446 6.42843 28.8006 5.05335C28.8286 4.36581 28.8516 3.86528 28.8675 3.53737C28.8755 3.37342 28.8817 3.25262 28.8859 3.17319L28.8907 3.08484L28.8919 3.06351L28.8922 3.05848L28.8922 3.05737Z" stroke="#A462C4" stroke-width="2"/>
</g>
<defs>
<clipPath id="clip0">
<rect width="32" height="35" fill="white"/>
</clipPath>
</defs>
</svg>
