<svg width="24" height="24" viewBox="0 0 24 24" fill="none" xmlns="http://www.w3.org/2000/svg">
<path d="M11.9987 6.00107C8.41551 5.94063 4.70969 8.44466 2.37988 11.0091C2.13533 11.2806 2 11.6331 2 11.9985C2 12.3639 2.13533 12.7163 2.37988 12.9878C4.65902 15.4981 8.35418 18.0599 11.9987 17.9986C15.6432 18.0599 19.3392 15.4981 21.6201 12.9878C21.8647 12.7163 22 12.3639 22 11.9985C22 11.6331 21.8647 11.2806 21.6201 11.0091C19.2876 8.44466 15.5818 5.94063 11.9987 6.00107Z" stroke="#A1A8AF" stroke-width="1.5" stroke-linecap="round" stroke-linejoin="round"/>
<path d="M15.3318 12.0003C15.3316 12.6595 15.136 13.3039 14.7696 13.852C14.4032 14.4 13.8825 14.8271 13.2734 15.0793C12.6643 15.3314 11.9941 15.3973 11.3476 15.2686C10.701 15.1399 10.1071 14.8223 9.64105 14.3561C9.17496 13.8899 8.85757 13.296 8.72903 12.6494C8.60048 12.0028 8.66654 11.3326 8.91886 10.7236C9.17118 10.1145 9.59843 9.59397 10.1466 9.22773C10.6947 8.86149 11.3392 8.66602 11.9984 8.66602C12.4363 8.6659 12.8699 8.75207 13.2744 8.9196C13.6789 9.08713 14.0465 9.33274 14.356 9.64239C14.6656 9.95204 14.9111 10.3197 15.0785 10.7242C15.246 11.1288 15.332 11.5624 15.3318 12.0003Z" stroke="#A1A8AF" stroke-width="1.5" stroke-linecap="round" stroke-linejoin="round"/>
</svg>
