<svg width="24" height="24" viewBox="0 0 24 24" fill="none" xmlns="http://www.w3.org/2000/svg">
<path d="M3.80566 20.0002L20.4725 4" stroke="#A1A8AF" stroke-width="1.5" stroke-linecap="round" stroke-linejoin="round"/>
<path d="M9.2998 18.2677C10.1734 18.539 11.0837 18.6736 11.9985 18.6668C15.643 18.7281 19.339 16.1663 21.62 13.6561C21.8645 13.3846 21.9998 13.0321 21.9998 12.6667C21.9998 12.3013 21.8645 11.9489 21.62 11.6774C20.7936 10.7709 19.8782 9.94986 18.8875 9.22668" stroke="#A1A8AF" stroke-width="1.5" stroke-linecap="round" stroke-linejoin="round"/>
<path d="M14.1436 6.91736C13.4422 6.74282 12.7214 6.65858 11.9987 6.66669C8.41551 6.60713 4.70969 9.11294 2.37988 11.6756C2.13533 11.9471 2 12.2996 2 12.665C2 13.0304 2.13533 13.3828 2.37988 13.6543C3.08827 14.4298 3.86145 15.1435 4.69102 15.7877" stroke="#A1A8AF" stroke-width="1.5" stroke-linecap="round" stroke-linejoin="round"/>
<path d="M8.66504 12.6667C8.66492 12.229 8.75106 11.7955 8.91854 11.391C9.08602 10.9865 9.33155 10.619 9.6411 10.3094C9.95066 9.99988 10.3182 9.75435 10.7226 9.58687C11.1271 9.4194 11.5606 9.33326 11.9984 9.33337" stroke="#A1A8AF" stroke-width="1.5" stroke-linecap="round" stroke-linejoin="round"/>
<path d="M15.3324 12.6659C15.3325 13.1037 15.2464 13.5373 15.0789 13.9418C14.9114 14.3463 14.6659 14.7139 14.3564 15.0235C14.0468 15.3331 13.6793 15.5788 13.2749 15.7463C12.8704 15.9139 12.4368 16.0002 11.999 16.0002" stroke="#A1A8AF" stroke-width="1.5" stroke-linecap="round" stroke-linejoin="round"/>
</svg>
