<svg width="24" height="24" viewBox="0 0 24 24" fill="none" xmlns="http://www.w3.org/2000/svg">
<path d="M6.03473 22.3067C6.03473 22.3067 5.9904 3.38375 6.00191 2.78767C6.01107 2.55551 6.01591 1.17775 7.45267 1.01482C8.63624 0.880744 9.19164 1.68206 9.32691 2.37717C9.32691 2.37717 10.0365 5.84524 8.58219 4.28221C8.58219 4.28221 7.0514 2.6645 7.55777 4.35109C7.96551 5.70919 9.38994 10.8062 9.36125 13.9378C9.33257 17.0694 9.43301 17.2248 9.4224 19.3312C9.41657 20.4895 9.38077 22.2969 9.38077 22.2969C9.38077 22.2969 9.01284 22.946 7.74975 22.9974C6.48666 23.0488 6.03473 22.3067 6.03473 22.3067Z" fill="#B3BCD8"/>
<path d="M15.0298 22.4958C15.0298 22.4958 14.9918 8.73364 15.0016 8.30012C15.0095 8.13128 15.0136 7.12927 16.2451 7.01078C17.2596 6.91327 17.7357 7.49604 17.8516 8.00158C17.8516 8.00158 18.4599 10.5238 17.2133 9.38706C17.2133 9.38706 15.9012 8.21055 16.3352 9.43716C16.6847 10.4249 17.9057 14.1318 17.8811 16.4093C17.8565 18.6868 17.9426 18.7999 17.9335 20.3318C17.9285 21.1742 17.8978 22.4886 17.8978 22.4886C17.8978 22.4886 17.5824 22.9608 16.4998 22.9981C15.4171 23.0355 15.0298 22.4958 15.0298 22.4958Z" fill="#B3BCD8"/>
</svg>
