<svg width="4" height="20" viewBox="0 0 4 20" fill="none" xmlns="http://www.w3.org/2000/svg">
<path d="M3 10C3 9.44772 2.55228 9 2 9C1.44772 9 1 9.44772 1 10C1 10.5523 1.44772 11 2 11C2.55228 11 3 10.5523 3 10Z" stroke="#B3BCD8" stroke-width="2" stroke-linecap="square"/>
<path d="M3 16C3 15.4477 2.55228 15 2 15C1.44772 15 1 15.4477 1 16C1 16.5523 1.44772 17 2 17C2.55228 17 3 16.5523 3 16Z" stroke="#B3BCD8" stroke-width="2" stroke-linecap="square"/>
<path d="M3 4C3 3.44772 2.55228 3 2 3C1.44772 3 1 3.44772 1 4C1 4.55228 1.44772 5 2 5C2.55228 5 3 4.55228 3 4Z" stroke="#B3BCD8" stroke-width="2" stroke-linecap="square"/>
</svg>
