<svg width="16" height="16" viewBox="0 0 16 16" fill="none" xmlns="http://www.w3.org/2000/svg">
<path d="M11.3663 11.6983C11.3663 12.6013 12.1051 13.3333 13.0166 13.3333C13.928 13.3333 14.6668 12.6013 14.6668 11.6983C14.6668 10.7952 13.928 10.0632 13.0166 10.0632C12.1051 10.0632 11.3663 10.7952 11.3663 11.6983Z" fill="#B3BCD8"/>
<path d="M1.65404 2.16032C4.81881 4.40474 11.2863 9.62886 11.7791 10.0386C12.8922 10.964 13.6522 11.8822 13.4762 12.09C13.3005 12.2975 12.2558 11.7155 11.1427 10.7901C10.6526 10.3827 3.18635 3.84378 1.70793 2.4543C1.28773 2.03636 1.1568 1.83738 1.65404 2.16032Z" fill="#B3BCD8"/>
<path d="M4.63403 11.6983C4.63403 12.6013 3.89518 13.3333 2.98377 13.3333C2.07235 13.3333 1.3335 12.6013 1.3335 11.6983C1.3335 10.7952 2.07235 10.0632 2.98377 10.0632C3.89518 10.0632 4.63403 10.7952 4.63403 11.6983Z" fill="#B3BCD8"/>
<path d="M14.3463 2.16032C11.1815 4.40474 4.71405 9.62886 4.22121 10.0386C3.10808 10.964 2.34816 11.8822 2.52411 12.09C2.69983 12.2975 3.74455 11.7155 4.85765 10.7901C5.34775 10.3827 12.814 3.84378 14.2924 2.4543C14.7126 2.03636 14.8435 1.83738 14.3463 2.16032Z" fill="#B3BCD8"/>
</svg>
