<svg width="24" height="24" viewBox="0 0 24 24" fill="none" xmlns="http://www.w3.org/2000/svg">
<path d="M12 10C13.1046 10 14 9.10457 14 8C14 6.89543 13.1046 6 12 6C10.8954 6 10 6.89543 10 8C10 9.10457 10.8954 10 12 10Z" fill="white"/>
<path d="M8 14C9.10457 14 10 13.1046 10 12C10 10.8954 9.10457 10 8 10C6.89543 10 6 10.8954 6 12C6 13.1046 6.89543 14 8 14Z" fill="white"/>
<path d="M12 18C13.1046 18 14 17.1046 14 16C14 14.8954 13.1046 14 12 14C10.8954 14 10 14.8954 10 16C10 17.1046 10.8954 18 12 18Z" fill="white"/>
<path d="M16 14C17.1046 14 18 13.1046 18 12C18 10.8954 17.1046 10 16 10C14.8954 10 14 10.8954 14 12C14 13.1046 14.8954 14 16 14Z" fill="white"/>
<path d="M11.9999 4C19.0638 4 24.8534 12.9804 22.4451 16.7522C19.6801 21.0826 4.31988 21.0826 1.5549 16.7522C-0.853403 12.9804 4.93611 4 11.9999 4Z" fill="#B3BCD8"/>
<path d="M7.40451 10.3362C8.18555 9.55513 9.59977 7.5817 8.81872 6.80065C8.03767 6.0196 6.06423 7.43381 5.28319 8.21486C4.50214 8.99591 3.44148 10.6158 4.22253 11.3968C5.00357 12.1779 6.62346 11.1172 7.40451 10.3362Z" fill="white"/>
</svg>
