<svg fill="none" height="24" viewBox="0 0 24 24" width="24" xmlns="http://www.w3.org/2000/svg">
<path clip-rule="evenodd"
    d="M22.7327 1.9192C23.0892 2.26937 23.0902 2.84596 22.7354 3.19888L22.7317 3.20255C22.3779 3.5573 22.0965 3.84605 22.0965 3.84605L20.1403 1.91003C20.1403 1.91003 20.4226 1.62128 20.7756 1.26836L20.7774 1.26653C21.1321 0.912691 21.7133 0.910857 22.069 1.26286L22.7327 1.9192ZM9.45619 12.5489L8.75126 15.1733L11.4115 14.4831L21.4408 4.48856L19.4865 2.55254L9.45619 12.5489ZM18.4663 10.4574V20.2557C18.4663 20.7608 18.0548 21.1706 17.5478 21.1706H3.75828C3.25044 21.1706 2.83885 20.7608 2.83885 20.2557V6.54043C2.83885 6.03626 3.25044 5.62558 3.75828 5.62558H13.3485L15.2011 3.79682H3.75828C2.23751 3.79682 1 5.02699 1 6.54043V20.2557C1 21.7692 2.23751 22.9993 3.75828 22.9993H17.5478C19.0677 22.9993 20.3052 21.7692 20.3052 20.2557V8.64237L18.4663 10.4574Z"
    fill="#A462C4" fill-rule="evenodd" />
</svg>
