<svg width="16" height="16" viewBox="0 0 16 16" fill="none" xmlns="http://www.w3.org/2000/svg">
<g clip-path="url(#clip0_1525:2098)">
<path d="M12.0009 6.66666H11.1611C10.9117 5.70065 10.3965 4.82398 9.67393 4.13625C8.95135 3.44852 8.05041 2.97732 7.07348 2.77617C6.09655 2.57503 5.0828 2.65202 4.14743 2.99838C3.21206 3.34475 2.39256 3.94661 1.78207 4.73558C1.17158 5.52454 0.794565 6.46897 0.69387 7.46156C0.593175 8.45414 0.772838 9.45508 1.21244 10.3506C1.65205 11.2462 2.33396 12.0004 3.18071 12.5277C4.02746 13.055 5.00508 13.3341 6.00249 13.3333H12.0009C12.8847 13.3333 13.7323 12.9821 14.3572 12.357C14.9822 11.7319 15.3333 10.884 15.3333 9.99999C15.3333 9.11593 14.9822 8.26809 14.3572 7.64297C13.7323 7.01784 12.8847 6.66666 12.0009 6.66666Z" stroke="#6BCAFF" stroke-width="1.5" stroke-linecap="round" stroke-linejoin="round"/>
</g>
<defs>
<clipPath id="clip0_1525:2098">
<rect width="16" height="16" fill="white"/>
</clipPath>
</defs>
</svg>
