<svg width="16" height="16" viewBox="0 0 16 16" fill="none" xmlns="http://www.w3.org/2000/svg">
<path fill-rule="evenodd" clip-rule="evenodd" d="M15.3333 8.00001C15.3333 12.0501 12.05 15.3333 7.99996 15.3333C3.94987 15.3333 0.666626 12.0501 0.666626 8.00001C0.666626 3.94992 3.94987 0.666672 7.99996 0.666672C12.05 0.666672 15.3333 3.94992 15.3333 8.00001ZM7.99976 14.1169C7.114 14.1169 6.27384 13.9237 5.5131 13.5835C6.47298 13.5799 7.48882 13.3695 8.48306 12.9777C8.70419 13.2182 9.12799 13.5972 9.77472 13.8524C9.21253 14.0232 8.61705 14.1169 7.99976 14.1169ZM10.6248 13.5169C9.84149 13.388 9.31581 13.0191 9.02336 12.7439C9.49816 12.5226 9.96496 12.2634 10.4138 11.96C10.7359 12.3375 11.2123 12.679 11.7307 12.8369C11.3888 13.1012 11.0185 13.3289 10.6248 13.5169ZM12.2674 12.3746C11.7328 12.3543 11.1874 12.0113 10.8499 11.6247C11.3876 11.2088 11.8605 10.749 12.2655 10.2566C12.4888 10.3607 12.9607 10.5517 13.5177 10.6241C13.2045 11.2798 12.782 11.8726 12.2674 12.3746ZM14.1176 8.0003C14.1176 8.73639 13.9801 9.4393 13.7407 10.0935C13.2807 10.0584 12.8626 9.91422 12.6162 9.8103C13.316 8.84241 13.7727 7.81308 14.0092 6.87389C14.0776 7.23954 14.1176 7.61512 14.1176 8.0003ZM9.66078 2.11822C10.078 2.23619 10.478 2.39442 10.8541 2.59373C10.85 3.43951 10.4807 4.44585 9.85534 5.4295C9.35888 4.32792 9.56239 2.70485 9.66078 2.11822ZM8.25668 1.89606C8.55158 1.90838 8.84175 1.93833 9.12451 1.99116C9.00932 2.64641 8.74364 4.66038 9.5063 5.94373C9.11377 6.47885 8.65324 6.99304 8.14017 7.45612C7.13926 4.7664 8.00243 2.46828 8.25668 1.89606ZM6.45667 2.08783C6.84359 1.98672 7.24458 1.92338 7.65709 1.90039C7.2951 2.79939 6.61105 5.11738 7.69426 7.82631C7.66208 7.85203 7.63083 7.87896 7.5996 7.90587C7.55719 7.94242 7.51479 7.97896 7.47012 8.0124C7.0692 8.31249 6.65178 8.57168 6.22915 8.79845C4.67565 4.81245 6.13963 2.51411 6.45667 2.08783ZM4.37328 3.08516C4.76943 2.7921 5.19855 2.5419 5.65945 2.35028C5.11324 3.41322 4.4125 5.68557 5.73467 9.04206C5.21442 9.28232 4.69241 9.46467 4.18092 9.58271C3.29431 6.50063 4.19763 3.59506 4.37328 3.08516ZM1.88229 8.0003C1.88229 6.35179 2.54068 4.85644 3.60454 3.75537C3.29879 4.98651 2.95304 7.25669 3.63863 9.68312C3.10558 9.75967 2.59428 9.76495 2.12403 9.68609C1.9698 9.14976 1.88229 8.58553 1.88229 8.0003ZM2.90443 11.3782C2.6746 11.0328 2.48132 10.662 2.32464 10.2722C2.49243 10.2891 2.66349 10.2991 2.83858 10.2991C3.23349 10.2991 3.64501 10.2559 4.06478 10.1733C4.06543 10.1731 4.06609 10.173 4.06674 10.173C4.06707 10.1729 4.0674 10.1729 4.06774 10.1729C4.06877 10.1728 4.0698 10.1727 4.07082 10.1724L4.07233 10.1715C4.75854 10.0358 5.46595 9.78801 6.16137 9.44865C6.16545 9.44744 6.16959 9.44692 6.17372 9.4464C6.17897 9.44573 6.18421 9.44507 6.1893 9.443C6.2024 9.43753 6.21304 9.42921 6.2237 9.42088C6.22832 9.41727 6.23294 9.41365 6.23777 9.41026C6.77173 9.14397 7.29825 8.8273 7.79926 8.45216C7.8705 8.39882 7.93818 8.34042 8.00589 8.28198C8.04654 8.2469 8.08723 8.21179 8.12869 8.17777C8.12957 8.17738 8.1305 8.17729 8.13143 8.1772C8.13235 8.17711 8.13328 8.17702 8.13416 8.17663C8.18273 8.15585 8.21796 8.12018 8.24615 8.07992C8.93237 7.49894 9.54248 6.82983 10.0406 6.12197C10.0534 6.10624 10.0646 6.09059 10.0735 6.07277C10.8137 5.00773 11.2904 3.88529 11.383 2.90787C11.7539 3.15503 12.0941 3.44306 12.4021 3.76296C12.3652 5.72502 10.8927 8.2766 8.92489 9.74937C7.01058 11.184 4.71778 11.8003 2.90443 11.3782ZM3.40246 12.0225C3.62122 12.0468 3.8436 12.0615 4.07049 12.0615C5.75924 12.0615 7.64074 11.3972 9.25411 10.1891C11.1565 8.76476 12.6219 6.37279 12.9028 4.35714C13.2027 4.75944 13.4578 5.19639 13.6524 5.666C13.5699 7.43119 12.3458 9.98106 10.1394 11.485C8.29414 12.7417 6.14953 13.2824 4.39487 12.9311C4.03152 12.6647 3.69883 12.3606 3.40246 12.0225Z" fill="#FFA6BA"/>
</svg>
