<svg width="16" height="16" viewBox="0 0 16 16" fill="none" xmlns="http://www.w3.org/2000/svg">
<path d="M4.02315 14.8711C4.02315 14.8711 3.9936 2.25583 4.00127 1.85843C4.00738 1.70367 4.01061 0.785155 4.96845 0.676538C5.75749 0.587153 6.12776 1.12136 6.21794 1.58477C6.21794 1.58477 6.691 3.89682 5.72146 2.85479C5.72146 2.85479 4.70094 1.77632 5.03851 2.90072C5.31034 3.80612 6.25996 7.20412 6.24083 9.29184C6.22171 11.3796 6.28867 11.4832 6.2816 12.8875C6.27771 13.6596 6.25384 14.8646 6.25384 14.8646C6.25384 14.8646 6.00856 15.2974 5.1665 15.3316C4.32444 15.3659 4.02315 14.8711 4.02315 14.8711Z" fill="#FFC460"/>
<path d="M10.0198 14.9972C10.0198 14.9972 9.99451 5.82242 10.0011 5.5334C10.0063 5.42084 10.0091 4.75284 10.8301 4.67384C11.5064 4.60884 11.8238 4.99735 11.9011 5.33437C11.9011 5.33437 12.3066 7.01587 11.4755 6.25803C11.4755 6.25803 10.6008 5.47369 10.8902 6.29143C11.1232 6.9499 11.9371 9.42117 11.9207 10.9395C11.9043 12.4579 11.9617 12.5332 11.9557 13.5545C11.9523 14.1161 11.9319 14.9924 11.9319 14.9924C11.9319 14.9924 11.7216 15.3072 10.9999 15.3321C10.2781 15.357 10.0198 14.9972 10.0198 14.9972Z" fill="#FFC460"/>
</svg>
