<svg width="16" height="16" viewBox="0 0 16 16" fill="none" xmlns="http://www.w3.org/2000/svg">
<path fill-rule="evenodd" clip-rule="evenodd" d="M6.01006 1.47595C5.20504 1.52054 4.25678 1.58594 3.91873 1.62458C3.0335 1.72268 2.03367 1.93374 1.53805 2.12696C0.638491 2.47773 0.412168 3.06929 1.00233 3.51816C1.1914 3.66085 1.38048 3.753 1.69848 3.86002C2.88452 4.26132 4.75526 4.46644 7.22762 4.46941C8.94652 4.47238 10.2901 4.3832 11.4389 4.18998C13.0518 3.9165 13.8454 3.51519 13.8454 2.96227C13.8454 2.22208 12.3557 1.7316 9.49084 1.52946C8.86344 1.48487 6.50855 1.44919 6.01006 1.47595ZM11.6395 2.53124C10.8832 2.39153 10.1498 2.30829 9.11841 2.24587C8.26183 2.19236 6.17909 2.19236 5.33683 2.24587C3.59787 2.35585 2.04799 2.62934 1.51227 2.92363L1.42919 2.96822L1.54378 3.02767C1.76724 3.14361 2.3402 3.30413 2.89885 3.4052C5.1105 3.80354 8.23031 3.85407 10.78 3.536C11.7369 3.41709 12.6078 3.21495 12.9688 3.0247L13.0834 2.96822L13.0003 2.92363C12.7825 2.80175 12.1838 2.63231 11.6395 2.53124Z" fill="#D39CF0" stroke="#D39CF0" stroke-width="0.5"/>
<path d="M3.14188 4.93285C2.92701 5.03392 2.87831 5.32227 3.04734 5.50063C3.15047 5.60467 3.35674 5.65521 4.11879 5.75331C5.19883 5.89599 5.76607 5.92572 7.28443 5.92572C8.93172 5.92572 9.67944 5.87816 10.7222 5.70872C10.8254 5.69088 10.9743 5.67007 11.0517 5.66115C11.3009 5.62845 11.4384 5.49171 11.4384 5.27471C11.4384 5.12905 11.364 5.01014 11.2379 4.95069C11.129 4.90015 11.0975 4.90015 10.5217 4.99528C10.1922 5.05176 9.53333 5.11419 8.66242 5.17661C8.10664 5.21526 5.73742 5.19445 5.27905 5.14688C5.11289 5.12905 4.83786 5.10229 4.66311 5.08446C4.30787 5.04879 3.88673 4.98636 3.52863 4.92096C3.23642 4.86746 3.28225 4.86746 3.14188 4.93285Z" fill="#D39CF0"/>
<path d="M3.12769 6.41939C3.0045 6.49073 2.92142 6.66909 2.94721 6.80583C2.97585 6.94555 3.10764 7.06148 3.27953 7.10012C3.71212 7.19228 4.48849 7.29037 5.33648 7.36172C6.13291 7.42712 8.26148 7.42712 9.09228 7.35874C9.77125 7.30524 10.1036 7.26956 10.5218 7.20714C10.688 7.18039 10.9029 7.14769 11.0031 7.13282C11.324 7.08526 11.4386 6.98122 11.4386 6.74638C11.4386 6.51154 11.2409 6.33912 11.0318 6.38966C10.7825 6.45506 9.9059 6.5591 9.03499 6.63044C7.43354 6.76124 5.23335 6.67503 3.70352 6.42236C3.31963 6.35696 3.23655 6.35696 3.12769 6.41939Z" fill="#D39CF0"/>
<path d="M3.07895 7.92395C2.9042 8.07555 2.9042 8.34904 3.08182 8.48281C3.17636 8.55415 3.34538 8.59577 3.74646 8.64928C4.27073 8.72062 4.6718 8.77115 4.82077 8.78602C6.48238 8.95843 9.08079 8.91681 10.4932 8.69386C10.6421 8.67008 10.8627 8.63738 10.9802 8.61955C11.3211 8.56901 11.4386 8.47092 11.4386 8.23608C11.4386 8.09933 11.4013 8.01015 11.3154 7.92989C11.2266 7.8526 11.1435 7.84071 10.9372 7.87639C10.8341 7.89422 10.6708 7.92098 10.5734 7.93881C10.4731 7.95367 10.347 7.97448 10.2926 7.9834C10.0835 8.0161 9.2183 8.08744 8.47344 8.13501C7.80594 8.17662 7.56243 8.1796 6.69724 8.14987C5.47396 8.10825 4.61164 8.03691 3.90403 7.918C3.75505 7.89422 3.52873 7.86747 3.40268 7.85855C3.18209 7.84369 3.16776 7.84666 3.07895 7.92395Z" fill="#D39CF0"/>
<path d="M10.9484 9.33576C10.5387 9.41008 10.0001 9.47547 8.97453 9.57952C8.45027 9.63005 6.00942 9.63005 5.47943 9.57952C4.41944 9.47547 4.1702 9.44575 3.7462 9.37738C3.4941 9.33576 3.25631 9.31198 3.21907 9.3209C2.99848 9.37738 2.88388 9.60627 2.97842 9.80247C3.08156 10.0195 3.18183 10.0492 4.23322 10.18C5.60548 10.3494 6.80585 10.4029 8.16092 10.3494C8.69378 10.3316 9.25529 10.3019 9.40426 10.287C10.0804 10.2157 10.3095 10.1889 10.7593 10.1205C11.0258 10.0819 11.2521 10.0433 11.2635 10.0373C11.275 10.0284 11.3925 10.0076 11.5271 9.98974C11.8881 9.93921 12.1488 9.98677 12.7991 10.2127C13.1028 10.3167 13.4494 10.4178 13.5812 10.4356C14.0797 10.5129 14.5151 10.4 15.0365 10.0641C15.3287 9.87381 15.4032 9.68951 15.2686 9.48142C15.1368 9.27631 14.9277 9.2555 14.6927 9.42197C14.6211 9.47547 14.4722 9.56168 14.3662 9.61222C14.1885 9.7014 14.1513 9.70734 13.8734 9.70734C13.5812 9.70734 13.5583 9.7014 13.0426 9.52006C12.7504 9.41899 12.4123 9.31495 12.2892 9.29117C11.9482 9.2228 11.4755 9.24064 10.9484 9.33576Z" fill="#D39CF0"/>
<path d="M3.14189 10.8096C2.97573 10.8987 2.89838 11.1425 2.98719 11.3119C3.07027 11.4725 3.28799 11.5438 3.91826 11.6241C4.04431 11.6389 4.30788 11.6716 4.50555 11.6954C5.38792 11.8054 5.69159 11.8173 7.2558 11.8143C8.20979 11.8143 8.94892 11.7994 9.15518 11.7786C9.33853 11.7578 9.64221 11.7281 9.82842 11.7103C10.1321 11.6805 10.9973 11.5587 11.1835 11.517C11.2236 11.5081 11.2981 11.4606 11.3497 11.41C11.4241 11.3327 11.4385 11.2971 11.4385 11.1722C11.4385 11.0444 11.427 11.0117 11.3439 10.9255C11.2895 10.869 11.2121 10.8155 11.172 10.8066C11.1291 10.7947 10.9314 10.8125 10.7308 10.8482C10.3183 10.9166 10.0232 10.9522 9.46172 10.9998C9.24972 11.0176 8.926 11.0444 8.74551 11.0593C8.31579 11.0979 6.1471 11.0979 5.70019 11.0593C5.50824 11.0444 5.17592 11.0147 4.96392 10.9968C4.64306 10.9701 4.19328 10.9077 3.33097 10.7769C3.26794 10.7679 3.19632 10.7798 3.14189 10.8096Z" fill="#D39CF0"/>
<path d="M12.2513 11.6659C12.1373 11.7343 12.0671 11.8651 12.0671 12.0077C12.0671 12.1831 12.1987 12.2931 12.5787 12.4239C12.9295 12.5458 13.175 12.6647 13.3066 12.7747C13.4147 12.8639 13.3855 12.9233 13.1721 13.0541C12.6167 13.393 11.2837 13.6873 9.55316 13.8538C8.88083 13.9162 6.79366 13.9429 5.97224 13.8984C4.25047 13.8032 2.72748 13.5446 1.90314 13.2057C1.66051 13.1076 1.39743 12.9382 1.39743 12.8877C1.39743 12.7866 1.76283 12.5755 2.20131 12.4209C2.47024 12.3288 2.58132 12.2366 2.61056 12.091C2.64856 11.8859 2.52871 11.7045 2.32408 11.654C2.22177 11.6302 1.80375 11.767 1.42666 11.9542C1.06418 12.1326 0.783554 12.4031 0.713397 12.6469C0.687088 12.7331 0.666626 12.8431 0.666626 12.8847C0.666626 13.2414 1.03203 13.61 1.65175 13.8805C3.69214 14.7723 9.04745 14.9388 12.1139 14.2075C13.7655 13.8121 14.4524 13.1403 13.9497 12.4061C13.786 12.1653 13.3095 11.8859 12.7395 11.6986C12.4121 11.5916 12.3741 11.5886 12.2513 11.6659Z" fill="#D39CF0" stroke="#D39CF0" stroke-width="0.5"/>
<path d="M3.1363 12.2968C2.96728 12.3889 2.90425 12.5881 2.99019 12.7724C3.06754 12.9418 3.15062 12.9745 3.64624 13.0488C4.39969 13.1618 4.58304 13.1826 5.53704 13.2658C6.04698 13.3075 8.42479 13.3075 8.92614 13.2599C9.11808 13.245 9.43608 13.2153 9.63376 13.1975C10.0148 13.1648 10.9315 13.037 11.1579 12.9894C11.3469 12.9448 11.4386 12.8318 11.4386 12.6297C11.4386 12.4959 11.4271 12.4692 11.3355 12.38C11.218 12.2641 11.1779 12.2581 10.7625 12.3235C9.23268 12.5584 7.43069 12.6356 5.86649 12.5316C4.78931 12.4603 4.40256 12.4216 3.80381 12.3235C3.33111 12.2462 3.2423 12.2403 3.1363 12.2968Z" fill="#D39CF0"/>
</svg>
