<svg width="24" height="24" viewBox="0 0 24 24" fill="none" xmlns="http://www.w3.org/2000/svg">
<path d="M7 2C6.37049 2 5.77771 2.29639 5.4 2.8L3.4 5.46667C3.14036 5.81286 3 6.23393 3 6.66667V20C3 20.5304 3.21071 21.0391 3.58579 21.4142C3.96086 21.7893 4.46957 22 5 22H19C19.5304 22 20.0391 21.7893 20.4142 21.4142C20.7893 21.0391 21 20.5304 21 20V6.66667C21 6.23393 20.8596 5.81286 20.6 5.46667L18.6 2.8C18.2223 2.29639 17.6295 2 17 2H7Z" stroke="#FFC460" stroke-width="2" stroke-linecap="round" stroke-linejoin="round"/>
<path d="M16 10C16 11.0609 15.5786 12.0783 14.8284 12.8284C14.0783 13.5786 13.0609 14 12 14C10.9391 14 9.92172 13.5786 9.17157 12.8284C8.42143 12.0783 8 11.0609 8 10" stroke="#FFC460" stroke-width="2" stroke-linecap="round" stroke-linejoin="round"/>
<path d="M3 6H21" stroke="#FFC460" stroke-width="2" stroke-linecap="round" stroke-linejoin="round"/>
</svg>
