<svg width="16" height="16" viewBox="0 0 16 16" fill="none" xmlns="http://www.w3.org/2000/svg">
<path d="M1.65379 2.16975C3.30835 3.41217 5.86563 5.51693 7.99992 7.30476C8.21174 7.4822 8.41939 7.65651 8.62159 7.82655C10.2789 9.22034 11.5693 10.3269 11.7789 10.5115C12.892 11.4913 13.6519 12.4635 13.476 12.6835C13.3002 12.9032 12.2555 12.287 11.1424 11.3072C10.9449 11.1334 9.61469 9.90534 7.99992 8.40469C7.79664 8.21578 7.58885 8.02254 7.37825 7.82655C5.11014 5.71579 2.51537 3.28476 1.70769 2.48102C1.28748 2.0385 1.15656 1.82781 1.65379 2.16975Z" fill="#7DD6D5"/>
<path d="M7.99992 8.40469C7.79664 8.21578 7.58885 8.02254 7.37825 7.82655C5.72091 9.22034 4.43057 10.3269 4.22096 10.5115L4.8574 11.3072C5.05489 11.1334 6.38515 9.90534 7.99992 8.40469Z" fill="#7DD6D5"/>
<path d="M5.33328 12C5.33328 13.1046 4.43785 14 3.33328 14C2.22871 14 1.33328 13.1046 1.33328 12C1.33328 10.8954 2.22871 10 3.33328 10C4.43785 10 5.33328 10.8954 5.33328 12Z" fill="#7DD6D5"/>
<path d="M14.6666 12C14.6666 13.1046 13.7712 14 12.6666 14C11.562 14 10.6666 13.1046 10.6666 12C10.6666 10.8954 11.562 10 12.6666 10C13.7712 10 14.6666 10.8954 14.6666 12Z" fill="#7DD6D5"/>
<path d="M7.99992 7.30476C8.21174 7.4822 8.41939 7.65651 8.62159 7.82655C10.8897 5.71579 13.4845 3.28476 14.2922 2.48102C14.7124 2.0385 14.8433 1.82781 14.346 2.16975C12.6915 3.41217 10.1342 5.51693 7.99992 7.30476Z" fill="#7DD6D5"/>
</svg>
