<svg width="24" height="24" viewBox="0 0 24 24" fill="none" xmlns="http://www.w3.org/2000/svg">
<path fill-rule="evenodd" clip-rule="evenodd" d="M23 12C23 18.0751 18.0751 23 12 23C5.92487 23 1 18.0751 1 12C1 5.92487 5.92487 1 12 1C18.0751 1 23 5.92487 23 12ZM11.9997 21.1754C10.6711 21.1754 9.41083 20.8855 8.2697 20.3752C9.70954 20.3699 11.2333 20.0543 12.7246 19.4666C13.0564 19.8273 13.692 20.3958 14.6621 20.7786C13.8189 21.0348 12.9256 21.1754 11.9997 21.1754ZM15.9373 20.2753C14.7623 20.082 13.9738 19.5286 13.5351 19.1158C14.2473 18.7839 14.9475 18.3951 15.6208 17.94C16.1039 18.5063 16.8185 19.0185 17.5961 19.2553C17.0832 19.6518 16.5278 19.9933 15.9373 20.2753ZM18.4012 18.5618C17.5993 18.5314 16.7812 18.0169 16.275 17.4371C17.0814 16.8132 17.7909 16.1235 18.3982 15.3849C18.7333 15.541 19.441 15.8275 20.2766 15.9362C19.8068 16.9197 19.173 17.8089 18.4012 18.5618ZM21.1764 12.0004C21.1764 13.1046 20.9702 14.1589 20.6111 15.1402C19.9212 15.0876 19.2939 14.8713 18.9243 14.7154C19.974 13.2636 20.6591 11.7196 21.0138 10.3108C21.1164 10.8593 21.1764 11.4227 21.1764 12.0004ZM14.4912 3.17732C15.1171 3.35428 15.7171 3.59161 16.2813 3.89059C16.275 5.15926 15.7211 6.66877 14.7831 8.14425C14.0384 6.49187 14.3436 4.05727 14.4912 3.17732ZM12.3851 2.84409C12.8274 2.86256 13.2627 2.90749 13.6868 2.98673C13.514 3.96961 13.1155 6.99057 14.2595 8.91559C13.6707 9.71827 12.9799 10.4895 12.2103 11.1842C10.7089 7.1496 12.0037 3.70242 12.3851 2.84409ZM9.68506 3.13174C10.2654 2.98008 10.8669 2.88506 11.4857 2.85058C10.9427 4.19908 9.91663 7.67607 11.5415 11.7395C11.4932 11.778 11.4463 11.8184 11.3995 11.8588L11.3994 11.8588C11.3358 11.9136 11.2722 11.9684 11.2052 12.0186C10.6039 12.4687 9.97773 12.8575 9.34379 13.1977C7.01354 7.21866 9.2095 3.77116 9.68506 3.13174ZM6.55997 4.62773C7.15421 4.18814 7.79788 3.81284 8.48923 3.52541C7.66992 5.11983 6.61882 8.52835 8.60207 13.5631C7.82169 13.9235 7.03867 14.197 6.27144 14.3741C4.94153 9.75093 6.29651 5.39258 6.55997 4.62773ZM2.82349 12.0004C2.82349 9.52767 3.81108 7.28465 5.40687 5.63304C4.94824 7.47976 4.42962 10.885 5.45801 14.5247C4.65844 14.6395 3.89148 14.6474 3.1861 14.5291C2.95476 13.7246 2.82349 12.8783 2.82349 12.0004ZM4.3567 17.0673C4.01196 16.5492 3.72205 15.993 3.48702 15.4083C3.73871 15.4337 3.9953 15.4486 4.25794 15.4486C4.8503 15.4486 5.46758 15.3839 6.09722 15.26C6.09821 15.2597 6.09919 15.2596 6.10017 15.2594C6.10067 15.2594 6.10117 15.2594 6.10166 15.2593C6.10321 15.2592 6.10475 15.259 6.1063 15.2586L6.10855 15.2573C7.13788 15.0537 8.19898 14.682 9.24211 14.173C9.24824 14.1711 9.25445 14.1704 9.26064 14.1696C9.26852 14.1686 9.27638 14.1676 9.28402 14.1645C9.30367 14.1563 9.31962 14.1438 9.33561 14.1313L9.33562 14.1313C9.34254 14.1259 9.34947 14.1205 9.35671 14.1154C10.1577 13.7159 10.9474 13.2409 11.699 12.6782C11.8058 12.5982 11.9073 12.5106 12.0089 12.423L12.0089 12.4229L12.0089 12.4229C12.0699 12.3703 12.1309 12.3177 12.1931 12.2666C12.1944 12.2661 12.1958 12.2659 12.1972 12.2658C12.1986 12.2657 12.2 12.2655 12.2013 12.2649C12.2742 12.2338 12.327 12.1803 12.3693 12.1199C13.3986 11.2484 14.3138 10.2447 15.061 9.18294C15.0802 9.15935 15.097 9.13587 15.1103 9.10915C16.2205 7.51159 16.9357 5.82793 17.0746 4.3618C17.6308 4.73254 18.1412 5.16459 18.6033 5.64443C18.5479 8.58752 16.3391 12.4149 13.3874 14.624C10.5159 16.7759 7.07673 17.7004 4.3567 17.0673ZM5.10375 18.0337C5.43189 18.0702 5.76546 18.0923 6.1058 18.0923C8.63891 18.0923 11.4612 17.0958 13.8812 15.2837C16.7348 13.1471 18.933 9.55918 19.3543 6.5357C19.804 7.13915 20.1867 7.79457 20.4787 8.49899C20.3549 11.1468 18.5187 14.9716 15.2091 17.2275C12.4413 19.1126 9.22435 19.9235 6.59236 19.3966C6.04735 18.997 5.5483 18.5409 5.10375 18.0337Z" fill="#FFC460"/>
</svg>
