<svg width="24" height="24" viewBox="0 0 24 24" fill="none" xmlns="http://www.w3.org/2000/svg">
<path d="M2.48081 3.25463C4.96265 5.11826 8.79856 8.27539 12 10.9571C12.3177 11.2233 12.6292 11.4848 12.9325 11.7398C15.4185 13.8305 17.354 15.4904 17.6684 15.7672C19.3381 17.237 20.478 18.6953 20.2141 19.0253C19.9505 19.3548 18.3834 18.4306 16.7138 16.9608C16.4175 16.7 14.4222 14.858 12 12.607C11.6951 12.3237 11.3834 12.0338 11.0675 11.7398C7.66534 8.57368 3.77317 4.92714 2.56165 3.72153C1.93135 3.05775 1.73496 2.74172 2.48081 3.25463Z" fill="#8CD6AD"/>
<path d="M12 12.607C11.6951 12.3237 11.3834 12.0338 11.0675 11.7398C8.58149 13.8305 6.64598 15.4904 6.33157 15.7672L7.28622 16.9608C7.58246 16.7 9.57784 14.858 12 12.607Z" fill="#8CD6AD"/>
<path d="M8.00004 18C8.00004 19.6569 6.6569 21 5.00004 21C3.34319 21 2.00004 19.6569 2.00004 18C2.00004 16.3431 3.34319 15 5.00004 15C6.6569 15 8.00004 16.3431 8.00004 18Z" fill="#8CD6AD"/>
<path d="M22 18C22 19.6569 20.6569 21 19 21C17.3432 21 16 19.6569 16 18C16 16.3431 17.3432 15 19 15C20.6569 15 22 16.3431 22 18Z" fill="#8CD6AD"/>
<path d="M12 10.9571C12.3177 11.2233 12.6292 11.4848 12.9325 11.7398C16.3347 8.57368 20.2268 4.92714 21.4383 3.72153C22.0687 3.05775 22.265 2.74172 21.5192 3.25463C19.0373 5.11826 15.2014 8.27539 12 10.9571Z" fill="#8CD6AD"/>
</svg>
