<svg width="24" height="24" viewBox="0 0 24 24" fill="none" xmlns="http://www.w3.org/2000/svg">
<circle cx="12" cy="12" r="11" stroke="#A462C4" stroke-width="2"/>
<path d="M17 12C17 15.1921 16.3509 18.0326 15.3482 20.0381C14.3156 22.1033 13.074 23 12 23C10.926 23 9.68442 22.1033 8.65179 20.0381C7.64906 18.0326 7 15.1921 7 12C7 8.80787 7.64906 5.96739 8.65179 3.96193C9.68442 1.89666 10.926 1 12 1C13.074 1 14.3156 1.89666 15.3482 3.96193C16.3509 5.96739 17 8.80787 17 12Z" stroke="#A462C4" stroke-width="2"/>
<line x1="2" y1="8" x2="23" y2="8" stroke="#A462C4" stroke-width="2"/>
<line x1="2" y1="16" x2="23" y2="16" stroke="#A462C4" stroke-width="2"/>
</svg>
