<svg width="24" height="24" viewBox="0 0 24 24" fill="none" xmlns="http://www.w3.org/2000/svg">
<mask id="path-1-outside-1" maskUnits="userSpaceOnUse" x="0" y="0" width="24" height="24" fill="black">
<rect fill="white" width="24" height="24"/>
<path fill-rule="evenodd" clip-rule="evenodd" d="M23 12C23 18.0751 18.0751 23 12 23C5.92487 23 1 18.0751 1 12C1 5.92487 5.92487 1 12 1C18.0751 1 23 5.92487 23 12ZM11.9997 21.1754C10.6711 21.1754 9.41083 20.8855 8.2697 20.3752C9.70954 20.3699 11.2333 20.0543 12.7246 19.4666C13.0564 19.8273 13.692 20.3958 14.6621 20.7786C13.8189 21.0348 12.9256 21.1754 11.9997 21.1754ZM15.9373 20.2753C14.7623 20.082 13.9738 19.5286 13.5351 19.1158C14.2473 18.7839 14.9475 18.3951 15.6208 17.94C16.1039 18.5063 16.8185 19.0185 17.5961 19.2553C17.0832 19.6518 16.5278 19.9933 15.9373 20.2753ZM18.4012 18.5618C17.5993 18.5314 16.7812 18.0169 16.275 17.4371C17.0814 16.8132 17.7909 16.1235 18.3982 15.3849C18.7333 15.541 19.441 15.8275 20.2766 15.9362C19.8068 16.9197 19.173 17.8089 18.4012 18.5618ZM21.1764 12.0004C21.1764 13.1046 20.9702 14.1589 20.6111 15.1402C19.9212 15.0876 19.2939 14.8713 18.9243 14.7154C19.974 13.2636 20.6591 11.7196 21.0138 10.3108C21.1164 10.8593 21.1764 11.4227 21.1764 12.0004ZM14.4912 3.17732C15.1171 3.35428 15.7171 3.59161 16.2813 3.89059C16.275 5.15926 15.7211 6.66877 14.7831 8.14425C14.0384 6.49187 14.3436 4.05727 14.4912 3.17732ZM12.3851 2.84409C12.8274 2.86256 13.2627 2.90749 13.6868 2.98673C13.514 3.96961 13.1155 6.99057 14.2595 8.91559C13.6707 9.71827 12.9799 10.4895 12.2103 11.1842C10.7089 7.1496 12.0037 3.70242 12.3851 2.84409ZM9.68506 3.13174C10.2654 2.98008 10.8669 2.88506 11.4857 2.85058C10.9427 4.19908 9.91663 7.67607 11.5415 11.7395C11.4932 11.778 11.4463 11.8184 11.3995 11.8588L11.3994 11.8588C11.3358 11.9136 11.2722 11.9684 11.2052 12.0186C10.6039 12.4687 9.97773 12.8575 9.34379 13.1977C7.01354 7.21866 9.2095 3.77116 9.68506 3.13174ZM6.55997 4.62773C7.15421 4.18814 7.79788 3.81284 8.48923 3.52541C7.66992 5.11983 6.61882 8.52835 8.60207 13.5631C7.82169 13.9235 7.03867 14.197 6.27144 14.3741C4.94153 9.75093 6.29651 5.39258 6.55997 4.62773ZM2.82349 12.0004C2.82349 9.52767 3.81108 7.28465 5.40687 5.63304C4.94824 7.47976 4.42962 10.885 5.45801 14.5247C4.65844 14.6395 3.89148 14.6474 3.1861 14.5291C2.95476 13.7246 2.82349 12.8783 2.82349 12.0004ZM4.3567 17.0673C4.01196 16.5492 3.72205 15.993 3.48702 15.4083C3.73871 15.4337 3.9953 15.4486 4.25794 15.4486C4.8503 15.4486 5.46758 15.3839 6.09722 15.26C6.09821 15.2597 6.09919 15.2596 6.10017 15.2594C6.10067 15.2594 6.10117 15.2594 6.10166 15.2593C6.10321 15.2592 6.10475 15.259 6.1063 15.2586L6.10855 15.2573C7.13788 15.0537 8.19898 14.682 9.24211 14.173C9.24824 14.1711 9.25445 14.1704 9.26064 14.1696C9.26852 14.1686 9.27638 14.1676 9.28402 14.1645C9.30367 14.1563 9.31962 14.1438 9.33561 14.1313L9.33562 14.1313C9.34254 14.1259 9.34947 14.1205 9.35671 14.1154C10.1577 13.7159 10.9474 13.2409 11.699 12.6782C11.8058 12.5982 11.9073 12.5106 12.0089 12.423L12.0089 12.4229L12.0089 12.4229C12.0699 12.3703 12.1309 12.3177 12.1931 12.2666C12.1944 12.2661 12.1958 12.2659 12.1972 12.2658C12.1986 12.2657 12.2 12.2655 12.2013 12.2649C12.2742 12.2338 12.327 12.1803 12.3693 12.1199C13.3986 11.2484 14.3138 10.2447 15.061 9.18294C15.0802 9.15935 15.097 9.13587 15.1103 9.10915C16.2205 7.51159 16.9357 5.82793 17.0746 4.3618C17.6308 4.73254 18.1412 5.16459 18.6033 5.64443C18.5479 8.58752 16.3391 12.4149 13.3874 14.624C10.5159 16.7759 7.07673 17.7004 4.3567 17.0673ZM5.10375 18.0337C5.43189 18.0702 5.76546 18.0923 6.1058 18.0923C8.63891 18.0923 11.4612 17.0958 13.8812 15.2837C16.7348 13.1471 18.933 9.55918 19.3543 6.5357C19.804 7.13915 20.1867 7.79457 20.4787 8.49899C20.3549 11.1468 18.5187 14.9716 15.2091 17.2275C12.4413 19.1126 9.22435 19.9235 6.59236 19.3966C6.04735 18.997 5.5483 18.5409 5.10375 18.0337Z"/>
</mask>
<path d="M8.2697 20.3752L8.26785 19.8752L8.06561 20.8317L8.2697 20.3752ZM12.7246 19.4666L13.0927 19.1281L12.8605 18.8756L12.5413 19.0014L12.7246 19.4666ZM14.6621 20.7786L14.8075 21.257L16.1799 20.8401L14.8457 20.3135L14.6621 20.7786ZM13.5351 19.1158L13.3239 18.6626L12.6551 18.9743L13.1924 19.4799L13.5351 19.1158ZM15.9373 20.2753L15.8561 20.7687L16.0111 20.7942L16.1528 20.7265L15.9373 20.2753ZM15.6208 17.94L16.0011 17.6155L15.711 17.2755L15.3407 17.5258L15.6208 17.94ZM17.5961 19.2553L17.9019 19.6509L18.6677 19.0589L17.7417 18.777L17.5961 19.2553ZM16.275 17.4371L15.969 17.0416L15.5494 17.3663L15.8983 17.7659L16.275 17.4371ZM18.4012 18.5618L18.3823 19.0615L18.5967 19.0696L18.7504 18.9197L18.4012 18.5618ZM18.3982 15.3849L18.6094 14.9317L18.2582 14.7681L18.0121 15.0674L18.3982 15.3849ZM20.2766 15.9362L20.7278 16.1517L21.025 15.5294L20.3411 15.4404L20.2766 15.9362ZM20.6111 15.1402L20.5732 15.6387L20.9506 15.6675L21.0807 15.312L20.6111 15.1402ZM18.9243 14.7154L18.5191 14.4225L18.1508 14.9319L18.73 15.1761L18.9243 14.7154ZM21.0138 10.3108L21.5053 10.2189L20.5289 10.1888L21.0138 10.3108ZM16.2813 3.89059L16.7812 3.89304L16.7827 3.59048L16.5154 3.4488L16.2813 3.89059ZM14.4912 3.17732L14.6273 2.69619L14.0904 2.54439L13.9981 3.09461L14.4912 3.17732ZM14.7831 8.14425L14.3272 8.34969L14.7079 9.19443L15.205 8.41249L14.7831 8.14425ZM13.6868 2.98673L14.1793 3.0733L14.2649 2.58608L13.7786 2.49523L13.6868 2.98673ZM12.3851 2.84409L12.4059 2.34452L12.0662 2.33033L11.9281 2.64107L12.3851 2.84409ZM14.2595 8.91559L14.6627 9.21132L14.8583 8.94456L14.6893 8.66015L14.2595 8.91559ZM12.2103 11.1842L11.7417 11.3586L11.9986 12.0488L12.5453 11.5553L12.2103 11.1842ZM11.4857 2.85058L11.9495 3.03733L12.2433 2.30758L11.4579 2.35135L11.4857 2.85058ZM9.68506 3.13174L9.55865 2.64798L9.3887 2.69239L9.28386 2.83335L9.68506 3.13174ZM11.5415 11.7395L11.8536 12.1301L12.1435 11.8984L12.0057 11.5538L11.5415 11.7395ZM11.3995 11.8588L11.7118 12.2492L11.7189 12.2435L11.7259 12.2376L11.3995 11.8588ZM11.3994 11.8588L11.0871 11.4684L11.08 11.4741L11.073 11.4801L11.3994 11.8588ZM11.2052 12.0186L11.5049 12.4189L11.5049 12.4189L11.2052 12.0186ZM9.34379 13.1977L8.87792 13.3792L9.08288 13.9051L9.5802 13.6382L9.34379 13.1977ZM8.48923 3.52541L8.93395 3.75393L9.55795 2.53959L8.29728 3.06372L8.48923 3.52541ZM6.55997 4.62773L6.26262 4.22576L6.1378 4.31809L6.08723 4.46489L6.55997 4.62773ZM8.60207 13.5631L8.81171 14.017L9.2403 13.8191L9.06728 13.3798L8.60207 13.5631ZM6.27144 14.3741L5.79092 14.5123L5.92197 14.9679L6.38387 14.8613L6.27144 14.3741ZM5.40687 5.63304L5.89213 5.75356L6.34082 3.94684L5.04729 5.28562L5.40687 5.63304ZM5.45801 14.5247L5.52908 15.0196L6.09448 14.9384L5.93917 14.3887L5.45801 14.5247ZM3.1861 14.5291L2.70558 14.6673L2.79266 14.9701L3.10341 15.0222L3.1861 14.5291ZM3.48702 15.4083L3.53723 14.9108L2.71477 14.8278L3.0231 15.5948L3.48702 15.4083ZM4.3567 17.0673L3.94043 17.3443L4.05026 17.5094L4.24335 17.5543L4.3567 17.0673ZM6.09722 15.26L6.19376 15.7506L6.21557 15.7463L6.23692 15.7401L6.09722 15.26ZM6.10017 15.2594L6.0458 14.7624L6.0457 14.7624L6.10017 15.2594ZM6.10166 15.2593L6.14469 15.7575L6.14473 15.7575L6.10166 15.2593ZM6.1063 15.2586L6.25407 15.7362L6.30453 15.7206L6.35062 15.6948L6.1063 15.2586ZM6.10855 15.2573L6.01152 14.7668L5.93356 14.7822L5.86423 14.8211L6.10855 15.2573ZM9.24211 14.173L9.09999 13.6936L9.06016 13.7054L9.02283 13.7236L9.24211 14.173ZM9.26064 14.1696L9.3231 14.6657L9.32314 14.6657L9.26064 14.1696ZM9.28402 14.1645L9.47259 14.6276L9.47684 14.6258L9.28402 14.1645ZM9.33561 14.1313L9.05826 13.7153L9.04255 13.7258L9.02767 13.7374L9.33561 14.1313ZM9.33562 14.1313L9.61297 14.5473L9.6287 14.5368L9.6436 14.5252L9.33562 14.1313ZM9.35671 14.1154L9.13357 13.6679L9.1001 13.6846L9.06949 13.7061L9.35671 14.1154ZM11.699 12.6782L11.9986 13.0785L11.9987 13.0785L11.699 12.6782ZM12.0089 12.423L12.3356 12.8015L12.3411 12.7967L12.0089 12.423ZM12.0089 12.4229L11.7089 12.0229L11.6923 12.0354L11.6767 12.0492L12.0089 12.4229ZM12.0089 12.4229L12.3089 12.8229L12.3226 12.8127L12.3356 12.8015L12.0089 12.4229ZM12.1931 12.2666L11.9926 11.8086L11.9293 11.8363L11.8759 11.8801L12.1931 12.2666ZM12.2013 12.2649L12.0046 11.8052L12.0007 11.8069L12.2013 12.2649ZM12.3693 12.1199L12.0462 11.7383L11.9969 11.7801L11.9598 11.833L12.3693 12.1199ZM15.061 9.18294L14.6731 8.86739L14.6621 8.88092L14.6521 8.89519L15.061 9.18294ZM15.1103 9.10915L14.6997 8.8238L14.6787 8.85404L14.6623 8.88703L15.1103 9.10915ZM17.0746 4.3618L17.3518 3.94573L16.6557 3.48176L16.5768 4.31466L17.0746 4.3618ZM18.6033 5.64443L19.1032 5.65382L19.1071 5.44678L18.9634 5.29762L18.6033 5.64443ZM13.3874 14.624L13.0878 14.2237L13.0876 14.2239L13.3874 14.624ZM5.10375 18.0337L5.15897 17.5368L3.87869 17.3945L4.72773 18.3633L5.10375 18.0337ZM13.8812 15.2837L13.5815 14.8835L13.5815 14.8835L13.8812 15.2837ZM19.3543 6.5357L19.7552 6.23692L19.0273 5.26008L18.8591 6.46668L19.3543 6.5357ZM20.4787 8.49899L20.9782 8.52235L20.9834 8.41073L20.9406 8.30752L20.4787 8.49899ZM15.2091 17.2275L15.4906 17.6408L15.4908 17.6407L15.2091 17.2275ZM6.59236 19.3966L6.29674 19.7998L6.38586 19.8652L6.4942 19.8868L6.59236 19.3966ZM12 23.5C18.3513 23.5 23.5 18.3513 23.5 12H22.5C22.5 17.799 17.799 22.5 12 22.5V23.5ZM0.5 12C0.5 18.3513 5.64873 23.5 12 23.5V22.5C6.20101 22.5 1.5 17.799 1.5 12H0.5ZM12 0.5C5.64873 0.5 0.5 5.64873 0.5 12H1.5C1.5 6.20101 6.20101 1.5 12 1.5V0.5ZM23.5 12C23.5 5.64873 18.3513 0.5 12 0.5V1.5C17.799 1.5 22.5 6.20101 22.5 12H23.5ZM8.06561 20.8317C9.26791 21.3693 10.5975 21.6754 11.9997 21.6754V20.6754C10.7446 20.6754 9.55375 20.4017 8.4738 19.9188L8.06561 20.8317ZM12.5413 19.0014C11.0997 19.5695 9.6374 19.8702 8.26785 19.8752L8.27156 20.8752C9.78168 20.8696 11.3669 20.539 12.908 19.9318L12.5413 19.0014ZM14.8457 20.3135C13.9635 19.9654 13.3878 19.449 13.0927 19.1281L12.3566 19.805C12.7249 20.2055 13.4206 20.8262 14.4786 21.2437L14.8457 20.3135ZM11.9997 21.6754C12.9766 21.6754 13.9187 21.5271 14.8075 21.257L14.5168 20.3002C13.719 20.5426 12.8747 20.6754 11.9997 20.6754V21.6754ZM13.1924 19.4799C13.6855 19.9439 14.5612 20.5556 15.8561 20.7687L16.0185 19.7819C14.9634 19.6083 14.262 19.1133 13.8778 18.7517L13.1924 19.4799ZM15.3407 17.5258C14.6913 17.9648 14.0144 18.3408 13.3239 18.6626L13.7463 19.569C14.4802 19.227 15.2037 18.8254 15.9008 18.3543L15.3407 17.5258ZM17.7417 18.777C17.0662 18.5713 16.4301 18.1183 16.0011 17.6155L15.2404 18.2645C15.7777 18.8943 16.5707 19.4657 17.4504 19.7336L17.7417 18.777ZM16.1528 20.7265C16.775 20.4293 17.3607 20.0693 17.9019 19.6509L17.2903 18.8597C16.8057 19.2343 16.2807 19.5572 15.7218 19.8241L16.1528 20.7265ZM15.8983 17.7659C16.4631 18.4129 17.4006 19.0243 18.3823 19.0615L18.4202 18.0622C17.798 18.0386 17.0992 17.6209 16.6516 17.1083L15.8983 17.7659ZM18.0121 15.0674C17.429 15.7763 16.7467 16.44 15.969 17.0416L16.5809 17.8325C17.4162 17.1864 18.1527 16.4707 18.7844 15.7025L18.0121 15.0674ZM20.3411 15.4404C19.5748 15.3407 18.9186 15.0757 18.6094 14.9317L18.1871 15.8382C18.548 16.0063 19.3073 16.3143 20.2121 16.432L20.3411 15.4404ZM18.7504 18.9197C19.5651 18.1249 20.2331 17.1873 20.7278 16.1517L19.8254 15.7207C19.3805 16.6522 18.7809 17.4929 18.0521 18.2039L18.7504 18.9197ZM21.0807 15.312C21.4584 14.2799 21.6764 13.1675 21.6764 12.0004H20.6764C20.6764 13.0416 20.4821 14.038 20.1416 14.9683L21.0807 15.312ZM18.73 15.1761C19.127 15.3436 19.8096 15.5806 20.5732 15.6387L20.6491 14.6416C20.0327 14.5947 19.4609 14.3991 19.1186 14.2547L18.73 15.1761ZM20.5289 10.1888C20.1897 11.536 19.5317 13.022 18.5191 14.4225L19.3295 15.0084C20.4163 13.5052 21.1285 11.9032 21.4987 10.4329L20.5289 10.1888ZM21.6764 12.0004C21.6764 11.3879 21.6128 10.7936 21.5053 10.2189L20.5223 10.4028C20.62 10.925 20.6764 11.4574 20.6764 12.0004H21.6764ZM16.5154 3.4488C15.9183 3.13238 15.2852 2.88222 14.6273 2.69619L14.3552 3.65846C14.9489 3.82634 15.5159 4.05085 16.0471 4.33239L16.5154 3.4488ZM15.205 8.41249C16.1705 6.89384 16.7744 5.29122 16.7812 3.89304L15.7813 3.88814C15.7757 5.02729 15.2717 6.4437 14.3611 7.87601L15.205 8.41249ZM13.9981 3.09461C13.9217 3.55039 13.8043 4.40819 13.8025 5.37022C13.8008 6.32302 13.9119 7.42814 14.3272 8.34969L15.2389 7.93881C14.9096 7.20798 14.8009 6.2696 14.8025 5.37203C14.8042 4.48367 14.9132 3.6842 14.9843 3.26004L13.9981 3.09461ZM13.7786 2.49523C13.3275 2.41095 12.8682 2.36383 12.4059 2.34452L12.3642 3.34365C12.7867 3.3613 13.1979 3.40403 13.595 3.47823L13.7786 2.49523ZM14.6893 8.66015C14.1826 7.8075 14.0004 6.67376 13.9793 5.58813C13.9584 4.51336 14.096 3.54703 14.1793 3.0733L13.1944 2.90016C13.1049 3.40932 12.9568 4.44491 12.9795 5.60759C13.0019 6.75941 13.1924 8.09865 13.8297 9.17102L14.6893 8.66015ZM12.5453 11.5553C13.3407 10.8374 14.0542 10.0408 14.6627 9.21132L13.8563 8.61985C13.2872 9.39577 12.6191 10.1417 11.8753 10.813L12.5453 11.5553ZM11.9281 2.64107C11.524 3.55069 10.1741 7.14593 11.7417 11.3586L12.6789 11.0098C11.2438 7.15327 12.4834 3.85415 12.842 3.04711L11.9281 2.64107ZM11.4579 2.35135C10.806 2.38767 10.1715 2.48784 9.55865 2.64798L9.81148 3.61549C10.3594 3.47231 10.9279 3.38244 11.5135 3.3498L11.4579 2.35135ZM12.0057 11.5538C10.4473 7.65642 11.432 4.32266 11.9495 3.03733L11.0219 2.66382C10.4535 4.07551 9.386 7.69571 11.0772 11.9251L12.0057 11.5538ZM11.7259 12.2376C11.7739 12.1962 11.8138 12.1619 11.8536 12.1301L11.2293 11.3488C11.1726 11.3942 11.1187 11.4407 11.0731 11.48L11.7259 12.2376ZM11.7118 12.2492L11.7118 12.2492L11.0871 11.4684L11.0871 11.4684L11.7118 12.2492ZM11.5049 12.4189C11.5879 12.3567 11.6644 12.2905 11.7258 12.2376L11.073 11.4801C11.0072 11.5368 10.9566 11.5802 10.9056 11.6183L11.5049 12.4189ZM9.5802 13.6382C10.2331 13.2879 10.8808 12.886 11.5049 12.4189L10.9056 11.6183C10.3269 12.0515 9.7224 12.4271 9.10738 12.7571L9.5802 13.6382ZM9.28386 2.83335C8.73011 3.57789 6.47152 7.20483 8.87792 13.3792L9.80966 13.0161C7.55557 7.2325 9.68889 3.96442 10.0863 3.43013L9.28386 2.83335ZM8.29728 3.06372C7.56497 3.36818 6.88621 3.76446 6.26262 4.22576L6.85733 5.0297C7.42221 4.61182 8.03079 4.25749 8.68118 3.9871L8.29728 3.06372ZM9.06728 13.3798C7.14197 8.4922 8.17355 5.2337 8.93395 3.75393L8.04451 3.29688C7.16628 5.00595 6.09566 8.5645 8.13686 13.7463L9.06728 13.3798ZM6.38387 14.8613C7.18802 14.6757 8.00355 14.3902 8.81171 14.017L8.39243 13.1091C7.63983 13.4567 6.88932 13.7183 6.159 13.8869L6.38387 14.8613ZM6.08723 4.46489C5.81374 5.25887 4.41768 9.73852 5.79092 14.5123L6.75195 14.2358C5.46538 9.76334 6.77929 5.52628 7.03271 4.79057L6.08723 4.46489ZM5.04729 5.28562C3.36599 7.02573 2.32349 9.39162 2.32349 12.0004H3.32349C3.32349 9.66373 4.25617 7.54357 5.76644 5.98047L5.04729 5.28562ZM5.93917 14.3887C4.94351 10.8649 5.44458 7.55566 5.89213 5.75356L4.92161 5.51253C4.4519 7.40385 3.91572 10.9051 4.97685 14.6606L5.93917 14.3887ZM3.10341 15.0222C3.86964 15.1507 4.68958 15.1402 5.52908 15.0196L5.38694 14.0298C4.6273 14.1388 3.91331 14.1441 3.26879 14.036L3.10341 15.0222ZM2.32349 12.0004C2.32349 12.9285 2.46231 13.8214 2.70558 14.6673L3.66663 14.3909C3.4472 13.6279 3.32349 12.828 3.32349 12.0004H2.32349ZM3.0231 15.5948C3.27026 16.2096 3.57586 16.7964 3.94043 17.3443L4.77297 16.7904C4.44806 16.302 4.17383 15.7763 3.95093 15.2218L3.0231 15.5948ZM4.25794 14.9486C4.01425 14.9486 3.77456 14.9348 3.53723 14.9108L3.4368 15.9058C3.70286 15.9326 3.97635 15.9486 4.25794 15.9486V14.9486ZM6.00069 14.7694C5.39904 14.8878 4.81424 14.9486 4.25794 14.9486V15.9486C4.88636 15.9486 5.53611 15.88 6.19376 15.7506L6.00069 14.7694ZM6.0457 14.7624C6.03127 14.764 5.99809 14.7681 5.95753 14.7799L6.23692 15.7401C6.19833 15.7513 6.16712 15.7551 6.15465 15.7565L6.0457 14.7624ZM6.05864 14.7612C6.05863 14.7612 6.05696 14.7613 6.05505 14.7615C6.05298 14.7617 6.04974 14.762 6.0458 14.7624L6.15455 15.7565C6.15111 15.7569 6.14836 15.7571 6.14679 15.7573C6.14538 15.7574 6.14421 15.7575 6.14469 15.7575L6.05864 14.7612ZM5.95853 14.7809C5.99007 14.7711 6.01661 14.7665 6.0336 14.764C6.04869 14.7619 6.0616 14.7609 6.0586 14.7612L6.14473 15.7575C6.14478 15.7574 6.14583 15.7574 6.14703 15.7572C6.14832 15.7571 6.15033 15.7569 6.15276 15.7567C6.15755 15.7562 6.16513 15.7554 6.17436 15.7541C6.1929 15.7515 6.22098 15.7465 6.25407 15.7362L5.95853 14.7809ZM5.86423 14.8211L5.86197 14.8223L6.35062 15.6948L6.35288 15.6935L5.86423 14.8211ZM9.02283 13.7236C8.01259 14.2166 6.99248 14.5727 6.01152 14.7668L6.20558 15.7478C7.28327 15.5346 8.38538 15.1474 9.46139 14.6223L9.02283 13.7236ZM9.19818 13.6735C9.19676 13.6737 9.18342 13.6753 9.16844 13.6778C9.15219 13.6805 9.12817 13.6852 9.09999 13.6936L9.38424 14.6523C9.36218 14.6589 9.34432 14.6623 9.33426 14.664C9.32547 14.6654 9.31832 14.6663 9.3231 14.6657L9.19818 13.6735ZM9.09545 13.7014C9.13 13.6873 9.15919 13.6805 9.17685 13.6771C9.19213 13.6741 9.20484 13.6727 9.19814 13.6735L9.32314 14.6657C9.32433 14.6655 9.3449 14.6631 9.36799 14.6586C9.39346 14.6537 9.4304 14.6448 9.47258 14.6276L9.09545 13.7014ZM9.02767 13.7374C9.01745 13.7454 9.02294 13.7408 9.03118 13.7353C9.04158 13.7282 9.0622 13.7153 9.09119 13.7032L9.47684 14.6258C9.56817 14.5876 9.63486 14.532 9.64355 14.5252L9.02767 13.7374ZM9.05827 13.7153L9.05826 13.7153L9.61296 14.5473L9.61297 14.5473L9.05827 13.7153ZM9.06949 13.7061C9.04993 13.7198 9.03292 13.7333 9.02765 13.7374L9.6436 14.5252L9.64394 14.5247L9.06949 13.7061ZM11.3993 12.278C10.6742 12.8209 9.91043 13.2805 9.13357 13.6679L9.57986 14.5628C10.4049 14.1514 11.2207 13.661 11.9986 13.0785L11.3993 12.278ZM11.6822 12.0444C11.5784 12.134 11.4899 12.2101 11.3992 12.278L11.9987 13.0785C12.1217 12.9863 12.2362 12.8872 12.3356 12.8015L11.6822 12.0444ZM11.6767 12.0492L11.6767 12.0493L12.3411 12.7967L12.3411 12.7966L11.6767 12.0492ZM11.7089 12.0229L11.7089 12.0229L12.3089 12.8229L12.3089 12.8229L11.7089 12.0229ZM11.8759 11.8801C11.8081 11.9357 11.7425 11.9925 11.6823 12.0444L12.3356 12.8015C12.3974 12.7482 12.4537 12.6996 12.5103 12.6532L11.8759 11.8801ZM12.148 11.7682C12.148 11.7682 12.1476 11.7683 12.1471 11.7683C12.1466 11.7684 12.1459 11.7684 12.145 11.7685C12.1432 11.7687 12.1404 11.769 12.137 11.7694C12.1303 11.7702 12.1195 11.7716 12.1063 11.774C12.0798 11.7788 12.0391 11.7883 11.9926 11.8086L12.3937 12.7247C12.3485 12.7444 12.3091 12.7536 12.2839 12.7581C12.2616 12.7621 12.2424 12.7638 12.2464 12.7634L12.148 11.7682ZM12.0007 11.8069C12.0459 11.7871 12.0852 11.778 12.1104 11.7735C12.1327 11.7695 12.152 11.7678 12.148 11.7682L12.2464 12.7634C12.2464 12.7634 12.2468 12.7633 12.2473 12.7633C12.2478 12.7632 12.2485 12.7632 12.2494 12.7631C12.2512 12.7629 12.254 12.7626 12.2574 12.7622C12.2641 12.7614 12.2749 12.76 12.2881 12.7576C12.3147 12.7528 12.3554 12.7433 12.4018 12.723L12.0007 11.8069ZM11.9598 11.833C11.9546 11.8405 11.9552 11.8381 11.9625 11.8315C11.9707 11.8242 11.9849 11.8137 12.0046 11.8053L12.398 12.7246C12.5857 12.6443 12.7048 12.5124 12.7788 12.4067L11.9598 11.833ZM14.6521 8.89519C13.9296 9.92192 13.0433 10.8941 12.0462 11.7383L12.6924 12.5015C13.7539 11.6027 14.698 10.5676 15.4699 9.4707L14.6521 8.89519ZM14.6623 8.88703C14.6722 8.86703 14.6808 8.85802 14.6731 8.86739L15.4488 9.49849C15.4796 9.46069 15.5218 9.40472 15.5582 9.33127L14.6623 8.88703ZM16.5768 4.31466C16.4486 5.66763 15.7796 7.26993 14.6997 8.8238L15.5209 9.3945C16.6615 7.75326 17.4228 5.98823 17.5723 4.40894L16.5768 4.31466ZM18.9634 5.29762C18.4778 4.7933 17.9399 4.33764 17.3518 3.94573L16.7973 4.77786C17.3218 5.12743 17.8046 5.53588 18.2431 5.99124L18.9634 5.29762ZM13.687 15.0243C15.2223 13.8753 16.5558 12.3131 17.514 10.6602C18.4696 9.01201 19.0734 7.236 19.1032 5.65382L18.1033 5.63503C18.0778 6.99594 17.5495 8.60517 16.6489 10.1587C15.751 11.7075 14.5042 13.1637 13.0878 14.2237L13.687 15.0243ZM4.24335 17.5543C7.14521 18.2297 10.7329 17.2382 13.6872 15.0242L13.0876 14.2239C10.2989 16.3137 7.00824 17.1711 4.47005 16.5803L4.24335 17.5543ZM6.1058 17.5923C5.7871 17.5923 5.47223 17.5716 5.15897 17.5368L5.04854 18.5307C5.39154 18.5688 5.74383 18.5923 6.1058 18.5923V17.5923ZM13.5815 14.8835C11.2344 16.6409 8.51503 17.5923 6.1058 17.5923V18.5923C8.7628 18.5923 11.688 17.5506 14.1809 15.6839L13.5815 14.8835ZM18.8591 6.46668C18.4584 9.34207 16.3421 12.8166 13.5815 14.8835L14.1809 15.6839C17.1275 13.4777 19.4076 9.77629 19.8495 6.60471L18.8591 6.46668ZM20.9406 8.30752C20.6314 7.56161 20.2274 6.87046 19.7552 6.23692L18.9534 6.83447C19.3807 7.40785 19.742 8.02753 20.0168 8.69045L20.9406 8.30752ZM15.4908 17.6407C18.9268 15.2985 20.8468 11.3311 20.9782 8.52235L19.9793 8.47563C19.863 10.9624 18.1107 14.6446 14.9275 16.8144L15.4908 17.6407ZM6.4942 19.8868C9.2891 20.4464 12.641 19.5815 15.4906 17.6408L14.9277 16.8143C12.2415 18.6437 9.1596 19.4007 6.69052 18.9063L6.4942 19.8868ZM4.72773 18.3633C5.19665 18.8983 5.72274 19.379 6.29674 19.7998L6.88799 18.9933C6.37196 18.615 5.89995 18.1836 5.47977 17.7042L4.72773 18.3633Z" fill="#DEE3EF" mask="url(#path-1-outside-1)"/>
</svg>
