<svg width="327" height="166" viewBox="0 0 327 166" fill="none" xmlns="http://www.w3.org/2000/svg">
<g clip-path="url(#clip0)">
<path d="M299.604 115.413C297.75 127.245 292.003 138.731 282.52 145.998C273.188 153.157 261.231 155.7 249.688 157.886C235.844 160.511 221.963 162.911 208.043 165.085C206.07 165.401 204.095 165.706 202.119 166H121.043C120.961 165.89 120.874 165.776 120.792 165.662C120.66 165.47 120.528 165.277 120.4 165.085C120.328 164.976 120.255 164.861 120.182 164.747H171.036C172.479 164.746 173.863 164.17 174.884 163.146C175.905 162.122 176.479 160.734 176.482 159.286V91.1529C176.81 90.1192 177.115 89.0809 177.393 88.0289C178.69 83.1303 179.534 78.122 179.913 73.0677C180.187 69.5458 180.269 66.0239 180.209 62.4974C180.041 52.8053 178.779 43.1132 177.407 33.4898C177.307 32.7808 177.202 32.0673 177.102 31.3583C176.136 24.6713 175.256 17.3942 178.614 11.535C182.456 4.82971 190.982 2.03505 198.66 2.72113C212.472 3.96066 224.106 14.5767 230.153 27.1046C236.195 39.6279 237.549 53.871 238.1 67.7757C238.392 75.1488 238.36 82.8513 237.334 90.2473C240.798 82.2978 244.264 74.3484 247.733 66.3989C249.583 62.1589 251.529 57.7817 254.956 54.6806C262.119 48.1903 273.967 49.4984 281.618 55.4079C289.265 61.3219 293.457 70.6664 296.246 79.9377C299.7 91.4044 301.463 103.58 299.604 115.413Z" fill="#F2F6FF"/>
<path d="M269.049 51.1434C274.058 60.048 276.356 70.2587 276.301 80.4481C276.223 90.5506 273.997 100.52 269.77 109.689C265.947 117.968 260.621 125.459 254.064 131.78C247.593 138.087 239.915 143.01 231.493 146.252C221.721 149.928 211.153 150.936 200.866 149.173C199.437 148.927 198.019 148.628 196.611 148.277C195.757 148.066 195.392 149.388 196.247 149.6C206.951 152.263 218.177 151.939 228.711 148.663C237.485 145.83 245.581 141.207 252.49 135.085C259.486 128.946 265.271 121.543 269.545 113.262C274.221 104.195 276.95 94.2432 277.554 84.0511C278.151 73.7088 276.423 63.1821 271.967 53.8004C271.427 52.6635 270.848 51.547 270.229 50.4508C270.134 50.3003 269.985 50.1926 269.813 50.1504C269.641 50.1082 269.459 50.1349 269.306 50.2247C269.152 50.3145 269.04 50.4605 268.992 50.6319C268.944 50.8033 268.965 50.9867 269.049 51.1434H269.049Z" fill="white"/>
<path d="M196.5 2.53908C202.054 12.8153 206.382 23.7127 209.394 35.0058C215.425 57.6242 216.334 81.3111 212.052 104.328C209.915 115.828 206.429 127.033 201.668 137.71C196.92 148.297 190.084 159.453 178.408 163.16C177.091 163.576 175.74 163.879 174.371 164.065C173.503 164.185 173.873 165.507 174.734 165.389C186.812 163.725 195.205 153.653 200.468 143.387C205.914 132.764 209.792 121.228 212.371 109.581C217.482 86.3426 217.298 62.2453 211.833 39.0878C209.118 27.5515 205.061 16.3759 199.744 5.79131C199.076 4.46579 198.388 3.15087 197.68 1.84653C197.259 1.07054 196.079 1.76237 196.5 2.53909V2.53908Z" fill="white"/>
<path d="M122.277 73.067L120.162 72.2391H87.0977C87.0539 72.5128 87.0371 72.7901 87.0476 73.067H82.5272L82.582 73.1539H122.496L122.277 73.067ZM122.277 73.067H82.5272L82.582 73.1539H122.496L122.277 73.067ZM122.277 73.067H82.5272L82.582 73.1539H122.496L122.277 73.067ZM122.496 73.1539L122.277 73.067H82.5272L82.582 73.1539H122.496ZM42.7458 164.746C41.3035 164.744 39.9208 164.168 38.901 163.144C37.8811 162.121 37.3071 160.733 37.3049 159.285V53.4587C37.3062 52.0103 37.8797 50.6214 38.8996 49.5968C39.9196 48.5722 41.3028 47.9954 42.7458 47.9929H51.2261V47.0781H42.7458C41.0613 47.0813 39.4467 47.7547 38.256 48.9507C37.0652 50.1468 36.3955 51.7679 36.3936 53.4587V159.285C36.395 160.508 36.7467 161.705 37.4067 162.733C38.0668 163.762 39.0074 164.578 40.1165 165.085H120.399C120.327 164.975 120.254 164.861 120.181 164.746H42.7458ZM175.642 74.2334C175.051 73.6031 174.337 73.101 173.544 72.7581C172.752 72.4151 171.898 72.2385 171.035 72.2391H83.0877L78.1664 64.3812L78.0478 64.1891L73.8739 57.5249L69.1984 50.0603C68.6254 49.1485 67.8319 48.3969 66.8918 47.8755C65.9517 47.3541 64.8954 47.0798 63.8214 47.0781H42.7458C41.0613 47.0813 39.4467 47.7547 38.256 48.9507C37.0652 50.1468 36.3955 51.7679 36.3936 53.4587V159.285C36.395 160.508 36.7467 161.705 37.4067 162.733C38.0668 163.762 39.0074 164.578 40.1165 165.085C40.941 165.466 41.8381 165.662 42.7458 165.661H171.035C171.945 165.662 172.843 165.466 173.669 165.085C174.779 164.578 175.719 163.762 176.379 162.733C177.039 161.705 177.391 160.508 177.392 159.285V78.6197C177.393 76.986 176.767 75.4148 175.642 74.2334ZM176.481 159.285C176.478 160.733 175.904 162.122 174.883 163.146C173.862 164.169 172.478 164.745 171.035 164.746H42.7458C41.3035 164.744 39.9208 164.168 38.9009 163.144C37.8811 162.121 37.3071 160.733 37.3049 159.285V53.4587C37.3062 52.0103 37.8797 50.6214 38.8996 49.5968C39.9196 48.5722 41.3028 47.9954 42.7458 47.9929H63.8214C64.7426 47.9904 65.6492 48.2239 66.4553 48.6713C67.2615 49.1187 67.9406 49.7653 68.4283 50.5497L72.7938 57.5249L76.968 64.1891L77.7516 65.4423L82.5273 73.067L82.582 73.1539H171.035C172.479 73.1551 173.864 73.7314 174.885 74.7562C175.906 75.7809 176.48 77.1704 176.481 78.6197V159.285ZM122.277 73.067H82.5272L82.582 73.1539H122.496L122.277 73.067ZM122.277 73.067H82.5272L82.582 73.1539H122.496L122.277 73.067ZM122.277 73.067H82.5272L82.582 73.1539H122.496L122.277 73.067ZM122.277 73.067L120.162 72.2391H83.0877L78.1664 64.3812L77.7516 65.4423L82.5273 73.067L82.582 73.1539H122.496L122.277 73.067Z" fill="#9DA6C0"/>
<mask id="mask0" mask-type="alpha" maskUnits="userSpaceOnUse" x="86" y="13" width="85" height="60">
<rect x="86" y="13" width="85" height="60" fill="#C4C4C4"/>
</mask>
<g mask="url(#mask0)">
<path fill-rule="evenodd" clip-rule="evenodd" d="M167.182 58C167.182 79.0872 150.087 96.1818 129 96.1818C109.231 96.1818 92.9706 81.1573 91.0153 61.9039C92.9707 81.1572 109.231 96.1815 129 96.1815C150.087 96.1815 167.182 79.087 167.182 57.9997C167.182 57.9998 167.182 57.9999 167.182 58ZM171 58C171 81.196 152.196 100 129 100C105.804 100 87 81.196 87 58C87 34.804 105.804 16 129 16C152.196 16 171 34.804 171 58ZM128.999 93.033C123.926 93.033 119.114 91.9261 114.757 89.9779C120.255 89.9575 126.073 88.7523 131.767 86.5085C133.033 87.8856 135.461 90.0564 139.165 91.5181C135.945 92.4963 132.534 93.033 128.999 93.033ZM144.033 89.5964C139.547 88.8581 136.536 86.7453 134.861 85.1692C137.581 83.9018 140.254 82.4174 142.825 80.6798C144.669 82.842 147.398 84.7977 150.367 85.7018C148.409 87.2156 146.288 88.5195 144.033 89.5964ZM153.441 83.054C150.379 82.9379 147.255 80.9733 145.323 78.7595C148.402 76.3773 151.111 73.7442 153.43 70.924C154.709 71.5199 157.411 72.6138 160.601 73.0289C158.808 76.7842 156.388 80.179 153.441 83.054ZM164.037 58.0014C164.037 62.2172 163.25 66.243 161.879 69.9895C159.244 69.7888 156.85 68.963 155.438 68.3678C159.446 62.8244 162.062 56.9291 163.416 51.5502C163.808 53.6443 164.037 55.7954 164.037 58.0014ZM138.512 24.3132C140.902 24.9888 143.193 25.895 145.347 27.0365C145.323 31.8805 143.208 37.6441 139.626 43.2778C136.783 36.9687 137.948 27.6729 138.512 24.3132ZM130.47 23.0408C132.159 23.1113 133.821 23.2829 135.441 23.5854C134.781 27.3383 133.259 38.8728 137.627 46.2229C135.379 49.2877 132.741 52.2326 129.803 54.8848C124.07 39.48 129.014 26.3181 130.47 23.0408ZM120.161 24.1391C122.377 23.56 124.674 23.1972 127.036 23.0656C124.963 28.2144 121.045 41.4902 127.249 57.0049C127.065 57.1522 126.886 57.3064 126.707 57.4606C126.464 57.6699 126.221 57.8792 125.965 58.0707C123.669 59.7894 121.279 61.2738 118.858 62.5727C109.961 39.7437 118.345 26.5805 120.161 24.1391ZM108.229 29.8511C110.498 28.1726 112.956 26.7397 115.595 25.6422C112.467 31.73 108.454 44.7443 116.026 63.9678C113.046 65.3439 110.057 66.3883 107.127 67.0643C102.049 49.4124 107.223 32.7714 108.229 29.8511ZM93.9624 58.0014C93.9624 48.5599 97.7332 39.9957 103.826 33.6895C102.075 40.7406 100.095 53.7426 104.021 67.6394C100.969 68.0778 98.0402 68.108 95.3469 67.6564C94.4636 64.5847 93.9624 61.3532 93.9624 58.0014ZM99.8165 77.3477C98.5002 75.3695 97.3932 73.2455 96.4959 71.0132C97.4569 71.1103 98.4366 71.1671 99.4394 71.1671C101.701 71.1671 104.058 70.92 106.462 70.447C106.468 70.4453 106.473 70.4449 106.479 70.4444C106.485 70.4439 106.491 70.4433 106.497 70.4415L106.505 70.4367C110.436 69.6592 114.487 68.2401 118.47 66.2965C118.493 66.2896 118.517 66.2866 118.541 66.2836C118.571 66.2798 118.601 66.276 118.63 66.2642C118.705 66.2328 118.766 66.1852 118.827 66.1374C118.853 66.1168 118.88 66.0961 118.907 66.0767C121.966 64.5515 124.981 62.7379 127.851 60.5894C128.259 60.2838 128.646 59.9493 129.034 59.6146C129.267 59.4137 129.5 59.2127 129.737 59.0178C129.742 59.0156 129.748 59.0151 129.753 59.0146H129.753C129.758 59.014 129.764 59.0135 129.769 59.0113C130.047 58.8923 130.249 58.688 130.41 58.4574C134.34 55.13 137.834 51.2978 140.687 47.2437C140.761 47.1536 140.825 47.064 140.876 46.9619C145.115 40.8622 147.845 34.4336 148.376 28.8357C150.5 30.2512 152.448 31.9009 154.212 33.733C154.001 44.9703 145.567 59.5839 134.297 68.0188C123.334 76.2352 110.202 79.765 99.8165 77.3477ZM102.669 81.0376C103.922 81.1768 105.195 81.2612 106.495 81.2612C116.167 81.2612 126.943 77.4563 136.183 70.5375C147.078 62.3797 155.471 48.6802 157.08 37.136C158.797 39.4401 160.258 41.9426 161.373 44.6322C160.9 54.742 153.89 69.3457 141.253 77.9593C130.685 85.1568 118.402 88.2533 108.353 86.2412C106.272 84.7156 104.366 82.9742 102.669 81.0376Z" fill="#FFA6BA"/>
</g>
<mask id="mask1" mask-type="alpha" maskUnits="userSpaceOnUse" x="42" y="9" width="25" height="39">
<rect x="42" y="9" width="25" height="38.08" fill="#C4C4C4"/>
</mask>
<g mask="url(#mask1)">
<path d="M61.2808 84.4593C61.2808 84.4593 46.7764 21.6009 46.3626 19.6109C46.2171 18.8324 45.188 14.2495 49.8669 12.6118C53.7214 11.2631 56.1858 13.5025 57.1653 15.7096C57.1653 15.7096 62.1683 26.6947 56.1213 22.6094C56.1213 22.6094 49.7772 18.4008 52.7494 23.62C55.1426 27.8227 63.7709 43.6762 66.0508 54.1062C68.3308 64.5362 68.7845 64.9764 70.3471 71.9852C71.2063 75.8392 72.4579 81.8737 72.4579 81.8737C72.4579 81.8737 71.7205 84.312 67.5375 85.4465C63.3545 86.5811 61.2808 84.4593 61.2808 84.4593Z" fill="#7DD6D5"/>
</g>
</g>
<defs>
<clipPath id="clip0">
<rect width="327" height="166" fill="white"/>
</clipPath>
</defs>
</svg>
